  0
SECTION
  2
HEADER
  9
$ACADVER
  1
AC1009
  9
$INSBASE
 10
0.0
 20
0.0
 30
0.0
  9
$EXTMIN
 10
0.0
 20
0.0
 30
0.0
  9
$EXTMAX
 10
0.0
 20
0.0
 30
0.0
  0
ENDSEC
  0
SECTION
  2
TABLES
  0
TABLE
  2
VPORT
 70
0
  0
ENDTAB
  0
TABLE
  2
LTYPE
 70
1
  0
LTYPE
  2
CONTINUOUS
 70
0
  3
Solid line
 72
65
 73
0
 40
0.0
  0
ENDTAB
  0
TABLE
  2
LAYER
 70
1
  0
LAYER
  2
0
 70
64
 62
7
  6
continuous
  0
ENDTAB
  0
TABLE
  2
STYLE
 70
1
  0
STYLE
  2
STANDARD
 70
0
 40
0
 41
1.0
 50
0.0
 71
0
 42
1
 3
ARIAL.TTF
 4

  0
ENDTAB
  0
TABLE
  2
VIEW
 70
0
  0
ENDTAB
  0
ENDSEC
  0
SECTION
  2
BLOCKS
  0
BLOCK
  8
0
  2
FILLET002_SOLID
 70
0
 10
0.0
 20
0.0
 30
0.0
  3
FILLET002_SOLID
  0
POLYLINE
  8
0
 62
0
 70
0
 66
1
 10
0.0
 20
0.0
 30
0.0
  0
VERTEX
  8
0
 10
20.1304003618
 20
23.7716009554
 30
0.0
  0
VERTEX
  8
0
 10
20.1697613472
 20
23.7407682624
 30
0.0
  0
VERTEX
  8
0
 10
20.2096307053
 20
23.7105958178
 30
0.0
  0
VERTEX
  8
0
 10
20.2499973917
 20
23.6810920424
 30
0.0
  0
VERTEX
  8
0
 10
20.2908501744
 20
23.6522651058
 30
0.0
  0
VERTEX
  8
0
 10
20.3321777078
 20
23.6241230179
 30
0.0
  0
VERTEX
  8
0
 10
20.3739685185
 20
23.5966736049
 30
0.0
  0
VERTEX
  8
0
 10
20.4162109881
 20
23.5699244762
 30
0.0
  0
VERTEX
  8
0
 10
20.4588933955
 20
23.5438830816
 30
0.0
  0
VERTEX
  8
0
 10
20.5020038726
 20
23.518556635
 30
0.0
  0
VERTEX
  8
0
 10
20.5455304536
 20
23.4939521868
 30
0.0
  0
VERTEX
  8
0
 10
20.5894610446
 20
23.4700765651
 30
0.0
  0
VERTEX
  8
0
 10
20.6337834394
 20
23.4469363957
 30
0.0
  0
VERTEX
  8
0
 10
20.6784853363
 20
23.4245381246
 30
0.0
  0
VERTEX
  8
0
 10
20.7235543035
 20
23.4028879439
 30
0.0
  0
VERTEX
  8
0
 10
20.7689778388
 20
23.3819919019
 30
0.0
  0
VERTEX
  8
0
 10
20.8147433121
 20
23.3618557754
 30
0.0
  0
VERTEX
  8
0
 10
20.860838017
 20
23.3424851713
 30
0.0
  0
VERTEX
  8
0
 10
20.9072491515
 20
23.3238854742
 30
0.0
  0
VERTEX
  8
0
 10
20.9539638131
 20
23.3060618237
 30
0.0
  0
VERTEX
  8
0
 10
21.0009690428
 20
23.289019215
 30
0.0
  0
VERTEX
  8
0
 10
21.0482517672
 20
23.2727623363
 30
0.0
  0
VERTEX
  8
0
 10
21.0957988642
 20
23.2572957372
 30
0.0
  0
VERTEX
  8
0
 10
21.1435971229
 20
23.2426237025
 30
0.0
  0
VERTEX
  8
0
 10
21.1916332609
 20
23.2287502901
 30
0.0
  0
VERTEX
  8
0
 10
21.2398939462
 20
23.2156793916
 30
0.0
  0
VERTEX
  8
0
 10
21.2883657623
 20
23.2034145974
 30
0.0
  0
VERTEX
  8
0
 10
21.3370352527
 20
23.1919593441
 30
0.0
  0
VERTEX
  8
0
 10
21.385888895
 20
23.181316799
 30
0.0
  0
VERTEX
  8
0
 10
21.4349131197
 20
23.1714899215
 30
0.0
  0
VERTEX
  8
0
 10
21.484094308
 20
23.1624814335
 30
0.0
  0
VERTEX
  8
0
 10
21.5334188038
 20
23.1542938677
 30
0.0
  0
VERTEX
  8
0
 10
21.5828728993
 20
23.1469294551
 30
0.0
  0
VERTEX
  8
0
 10
21.6324428598
 20
23.1403902551
 30
0.0
  0
VERTEX
  8
0
 10
21.6821149228
 20
23.134678136
 30
0.0
  0
VERTEX
  8
0
 10
21.731875277
 20
23.1297945631
 30
0.0
  0
VERTEX
  8
0
 10
21.7817101165
 20
23.1257410604
 30
0.0
  0
VERTEX
  8
0
 10
21.831605586
 20
23.1225185971
 30
0.0
  0
VERTEX
  8
0
 10
21.8815478309
 20
23.1201281387
 30
0.0
  0
VERTEX
  8
0
 10
21.9315229804
 20
23.1185703937
 30
0.0
  0
VERTEX
  8
0
 10
21.9815171494
 20
23.1178456958
 30
0.0
  0
VERTEX
  8
0
 10
22.0315164528
 20
23.1179543051
 30
0.0
  0
VERTEX
  8
0
 10
22.0815070017
 20
23.1188961916
 30
0.0
  0
VERTEX
  8
0
 10
22.1314749097
 20
23.1206711028
 30
0.0
  0
VERTEX
  8
0
 10
22.1814063007
 20
23.1232784599
 30
0.0
  0
VERTEX
  8
0
 10
22.2312872966
 20
23.1267176999
 30
0.0
  0
VERTEX
  8
0
 10
22.281104054
 20
23.1309876923
 30
0.0
  0
VERTEX
  8
0
 10
22.3308427242
 20
23.1360873786
 30
0.0
  0
VERTEX
  8
0
 10
22.3804894953
 20
23.1420152999
 30
0.0
  0
VERTEX
  8
0
 10
22.4300305834
 20
23.1487697591
 30
0.0
  0
VERTEX
  8
0
 10
22.4794522139
 20
23.1563489786
 30
0.0
  0
VERTEX
  8
0
 10
22.5287406706
 20
23.1647507743
 30
0.0
  0
VERTEX
  8
0
 10
22.5778822568
 20
23.1739728475
 30
0.0
  0
VERTEX
  8
0
 10
22.6268633245
 20
23.1840126249
 30
0.0
  0
VERTEX
  8
0
 10
22.6756702664
 20
23.1948673268
 30
0.0
  0
VERTEX
  8
0
 10
22.724289529
 20
23.2065339219
 30
0.0
  0
VERTEX
  8
0
 10
22.7727076011
 20
23.2190091941
 30
0.0
  0
VERTEX
  8
0
 10
22.82091104
 20
23.232289654
 30
0.0
  0
VERTEX
  8
0
 10
22.868886454
 20
23.2463716203
 30
0.0
  0
VERTEX
  8
0
 10
22.9166205111
 20
23.2612512014
 30
0.0
  0
VERTEX
  8
0
 10
22.9640999651
 20
23.2769242221
 30
0.0
  0
VERTEX
  8
0
 10
23.0113116116
 20
23.2933863773
 30
0.0
  0
VERTEX
  8
0
 10
23.0582423505
 20
23.3106330546
 30
0.0
  0
VERTEX
  8
0
 10
23.1048791394
 20
23.3286594812
 30
0.0
  0
VERTEX
  8
0
 10
23.1512090202
 20
23.3474606588
 30
0.0
  0
VERTEX
  8
0
 10
23.1972191354
 20
23.3670313364
 30
0.0
  0
VERTEX
  8
0
 10
23.2428966885
 20
23.3873661164
 30
0.0
  0
VERTEX
  8
0
 10
23.2882290083
 20
23.4084593123
 30
0.0
  0
VERTEX
  8
0
 10
23.3332034912
 20
23.4303050902
 30
0.0
  0
VERTEX
  8
0
 10
23.3778076486
 20
23.4528973737
 30
0.0
  0
VERTEX
  8
0
 10
23.4220290934
 20
23.4762298821
 30
0.0
  0
VERTEX
  8
0
 10
23.465855533
 20
23.5002961516
 30
0.0
  0
VERTEX
  8
0
 10
23.5092748074
 20
23.525089472
 30
0.0
  0
VERTEX
  8
0
 10
23.552274842
 20
23.5506029813
 30
0.0
  0
VERTEX
  8
0
 10
23.5948437037
 20
23.5768295737
 30
0.0
  0
VERTEX
  8
0
 10
23.6369695618
 20
23.6037619742
 30
0.0
  0
VERTEX
  8
0
 10
23.6786407161
 20
23.6313927006
 30
0.0
  0
VERTEX
  8
0
 10
23.7198455944
 20
23.6597140729
 30
0.0
  0
VERTEX
  8
0
 10
23.7605727446
 20
23.6887182341
 30
0.0
  0
VERTEX
  8
0
 10
23.8008108633
 20
23.7183971144
 30
0.0
  0
VERTEX
  8
0
 10
23.8405487633
 20
23.7487424836
 30
0.0
  0
VERTEX
  8
0
 10
23.8695996382
 20
23.7716009554
 30
0.0
  0
SEQEND
  8
0
  0
ARC
  8
0
 62
0
 10
10.75
 20
12.0
 30
0.0
 40
15.0519932235
 50
51.4498149804
 51
130.019415561
  0
ARC
  8
0
 62
0
 10
3.0
 20
21.22973676
 30
0.0
 40
3.0
 50
130.019415561
 51
-180.0
  0
LINE
  8
0
 62
0
 10
0.0
 20
3.0
 30
0.0
 11
0.0
 21
21.22973676
 31
0.0
  0
ARC
  8
0
 62
0
 10
33.25
 20
12.0
 30
0.0
 40
15.0519932235
 50
49.9805844392
 51
128.55018502
  0
ARC
  8
0
 62
0
 10
3.0
 20
3.0
 30
0.0
 40
3.0
 50
180.0
 51
-90.0
  0
ARC
  8
0
 62
0
 10
41.0
 20
21.22973676
 30
0.0
 40
3.0
 50
-0.0
 51
49.9805844392
  0
LINE
  8
0
 62
0
 10
3.0
 20
2.77555756156e-15
 30
0.0
 11
41.0
 21
2.77555756156e-15
 31
0.0
  0
LINE
  8
0
 62
0
 10
44.0
 20
3.0
 30
0.0
 11
44.0
 21
21.22973676
 31
0.0
  0
ARC
  8
0
 62
0
 10
41.0
 20
3.0
 30
0.0
 40
3.0
 50
-90.0
 51
0.0
  0
CIRCLE
  8
0
 62
0
 10
33.25
 20
12.0
 30
0.0
 40
8.2
  0
CIRCLE
  8
0
 62
0
 10
10.75
 20
12.0
 30
0.0
 40
8.2
  0
ENDBLK
  0
ENDSEC
  0
SECTION
  2
ENTITIES
  0
INSERT
  2
FILLET002_SOLID
  8
0
 62
0
 10
0.0
 20
0.0
 30
0.0
  0
ENDSEC
  0
EOF
